<mxfile host="app.diagrams.net" agent="Mozilla/5.0 (Windows NT 10.0; Win64; x64) AppleWebKit/537.36 (KHTML, like Gecko) Chrome/139.0.0.0 Safari/537.36" version="28.1.2">
  <diagram name="Page-1" id="PftWZ8_oem7aZpNXl5ym">
    <mxGraphModel dx="1838" dy="1160" grid="1" gridSize="10" guides="1" tooltips="1" connect="1" arrows="1" fold="1" page="1" pageScale="1" pageWidth="850" pageHeight="1100" math="0" shadow="0">
      <root>
        <mxCell id="0" />
        <mxCell id="1" parent="0" />
        <mxCell id="d8Z05ewhvWo1tUGJ9WbJ-25" value="" style="rounded=0;whiteSpace=wrap;html=1;fontSize=20;strokeWidth=2;" parent="1" vertex="1">
          <mxGeometry x="200" y="80" width="240" height="280" as="geometry" />
        </mxCell>
        <mxCell id="d8Z05ewhvWo1tUGJ9WbJ-26" value="d" style="text;html=1;align=center;verticalAlign=middle;resizable=0;points=[];autosize=1;strokeColor=none;fillColor=none;fontSize=20;" parent="1" vertex="1">
          <mxGeometry x="209" y="87" width="30" height="40" as="geometry" />
        </mxCell>
        <mxCell id="d8Z05ewhvWo1tUGJ9WbJ-27" value="clk" style="text;html=1;align=center;verticalAlign=middle;resizable=0;points=[];autosize=1;strokeColor=none;fillColor=none;fontSize=20;" parent="1" vertex="1">
          <mxGeometry x="209" y="315" width="50" height="40" as="geometry" />
        </mxCell>
        <mxCell id="d8Z05ewhvWo1tUGJ9WbJ-28" value="q (or) so" style="text;html=1;align=center;verticalAlign=middle;resizable=0;points=[];autosize=1;strokeColor=none;fillColor=none;fontSize=20;" parent="1" vertex="1">
          <mxGeometry x="340" y="123" width="100" height="40" as="geometry" />
        </mxCell>
        <mxCell id="d8Z05ewhvWo1tUGJ9WbJ-29" value="&amp;gt;" style="text;html=1;align=center;verticalAlign=middle;resizable=0;points=[];autosize=1;strokeColor=none;fillColor=none;fontSize=40;strokeWidth=8;" parent="1" vertex="1">
          <mxGeometry x="184" y="308" width="50" height="60" as="geometry" />
        </mxCell>
        <mxCell id="d8Z05ewhvWo1tUGJ9WbJ-30" value="" style="endArrow=none;html=1;rounded=0;strokeWidth=2;fontSize=11;" parent="1" edge="1">
          <mxGeometry width="50" height="50" relative="1" as="geometry">
            <mxPoint x="120" y="338" as="sourcePoint" />
            <mxPoint x="200" y="338" as="targetPoint" />
          </mxGeometry>
        </mxCell>
        <mxCell id="d8Z05ewhvWo1tUGJ9WbJ-31" value="" style="endArrow=none;html=1;rounded=0;strokeWidth=2;fontSize=11;" parent="1" edge="1">
          <mxGeometry width="50" height="50" relative="1" as="geometry">
            <mxPoint x="120" y="108" as="sourcePoint" />
            <mxPoint x="200" y="108" as="targetPoint" />
          </mxGeometry>
        </mxCell>
        <mxCell id="d8Z05ewhvWo1tUGJ9WbJ-32" value="" style="endArrow=none;html=1;rounded=0;strokeWidth=2;fontSize=11;" parent="1" edge="1">
          <mxGeometry width="50" height="50" relative="1" as="geometry">
            <mxPoint x="440" y="147.58000000000004" as="sourcePoint" />
            <mxPoint x="520" y="147.58000000000004" as="targetPoint" />
          </mxGeometry>
        </mxCell>
        <mxCell id="d8Z05ewhvWo1tUGJ9WbJ-33" value="si" style="text;html=1;align=center;verticalAlign=middle;resizable=0;points=[];autosize=1;strokeColor=none;fillColor=none;fontSize=20;" parent="1" vertex="1">
          <mxGeometry x="204" y="167" width="40" height="40" as="geometry" />
        </mxCell>
        <mxCell id="d8Z05ewhvWo1tUGJ9WbJ-34" value="" style="endArrow=none;html=1;rounded=0;strokeWidth=2;fontSize=11;" parent="1" edge="1">
          <mxGeometry width="50" height="50" relative="1" as="geometry">
            <mxPoint x="120" y="188" as="sourcePoint" />
            <mxPoint x="200" y="188" as="targetPoint" />
          </mxGeometry>
        </mxCell>
        <mxCell id="d8Z05ewhvWo1tUGJ9WbJ-35" value="se" style="text;html=1;align=center;verticalAlign=middle;resizable=0;points=[];autosize=1;strokeColor=none;fillColor=none;fontSize=20;" parent="1" vertex="1">
          <mxGeometry x="204" y="247" width="40" height="40" as="geometry" />
        </mxCell>
        <mxCell id="d8Z05ewhvWo1tUGJ9WbJ-36" value="" style="endArrow=none;html=1;rounded=0;strokeWidth=2;fontSize=11;" parent="1" edge="1">
          <mxGeometry width="50" height="50" relative="1" as="geometry">
            <mxPoint x="120" y="268" as="sourcePoint" />
            <mxPoint x="200" y="268" as="targetPoint" />
          </mxGeometry>
        </mxCell>
        <mxCell id="d8Z05ewhvWo1tUGJ9WbJ-37" value="" style="rounded=0;whiteSpace=wrap;html=1;fontSize=20;strokeWidth=2;" parent="1" vertex="1">
          <mxGeometry x="680" y="80" width="240" height="280" as="geometry" />
        </mxCell>
        <mxCell id="d8Z05ewhvWo1tUGJ9WbJ-38" value="d" style="text;html=1;align=center;verticalAlign=middle;resizable=0;points=[];autosize=1;strokeColor=none;fillColor=none;fontSize=20;" parent="1" vertex="1">
          <mxGeometry x="689" y="87" width="30" height="40" as="geometry" />
        </mxCell>
        <mxCell id="d8Z05ewhvWo1tUGJ9WbJ-39" value="clk" style="text;html=1;align=center;verticalAlign=middle;resizable=0;points=[];autosize=1;strokeColor=none;fillColor=none;fontSize=20;" parent="1" vertex="1">
          <mxGeometry x="689" y="315" width="50" height="40" as="geometry" />
        </mxCell>
        <mxCell id="d8Z05ewhvWo1tUGJ9WbJ-40" value="q (or) so" style="text;html=1;align=center;verticalAlign=middle;resizable=0;points=[];autosize=1;strokeColor=none;fillColor=none;fontSize=20;" parent="1" vertex="1">
          <mxGeometry x="820" y="123" width="100" height="40" as="geometry" />
        </mxCell>
        <mxCell id="d8Z05ewhvWo1tUGJ9WbJ-41" value="&amp;gt;" style="text;html=1;align=center;verticalAlign=middle;resizable=0;points=[];autosize=1;strokeColor=none;fillColor=none;fontSize=40;strokeWidth=8;" parent="1" vertex="1">
          <mxGeometry x="664" y="308" width="50" height="60" as="geometry" />
        </mxCell>
        <mxCell id="d8Z05ewhvWo1tUGJ9WbJ-42" value="" style="endArrow=none;html=1;rounded=0;strokeWidth=2;fontSize=11;" parent="1" edge="1">
          <mxGeometry width="50" height="50" relative="1" as="geometry">
            <mxPoint x="600" y="338" as="sourcePoint" />
            <mxPoint x="680" y="338" as="targetPoint" />
          </mxGeometry>
        </mxCell>
        <mxCell id="d8Z05ewhvWo1tUGJ9WbJ-43" value="" style="endArrow=none;html=1;rounded=0;strokeWidth=2;fontSize=11;" parent="1" edge="1">
          <mxGeometry width="50" height="50" relative="1" as="geometry">
            <mxPoint x="600" y="108" as="sourcePoint" />
            <mxPoint x="680" y="108" as="targetPoint" />
          </mxGeometry>
        </mxCell>
        <mxCell id="d8Z05ewhvWo1tUGJ9WbJ-44" value="" style="endArrow=none;html=1;rounded=0;strokeWidth=2;fontSize=11;" parent="1" edge="1">
          <mxGeometry width="50" height="50" relative="1" as="geometry">
            <mxPoint x="920" y="147.58000000000004" as="sourcePoint" />
            <mxPoint x="1000" y="147.58000000000004" as="targetPoint" />
          </mxGeometry>
        </mxCell>
        <mxCell id="d8Z05ewhvWo1tUGJ9WbJ-45" value="si" style="text;html=1;align=center;verticalAlign=middle;resizable=0;points=[];autosize=1;strokeColor=none;fillColor=none;fontSize=20;" parent="1" vertex="1">
          <mxGeometry x="684" y="167" width="40" height="40" as="geometry" />
        </mxCell>
        <mxCell id="d8Z05ewhvWo1tUGJ9WbJ-46" value="" style="endArrow=none;html=1;rounded=0;strokeWidth=2;fontSize=11;" parent="1" edge="1">
          <mxGeometry width="50" height="50" relative="1" as="geometry">
            <mxPoint x="600" y="188" as="sourcePoint" />
            <mxPoint x="680" y="188" as="targetPoint" />
          </mxGeometry>
        </mxCell>
        <mxCell id="d8Z05ewhvWo1tUGJ9WbJ-47" value="se" style="text;html=1;align=center;verticalAlign=middle;resizable=0;points=[];autosize=1;strokeColor=none;fillColor=none;fontSize=20;" parent="1" vertex="1">
          <mxGeometry x="684" y="247" width="40" height="40" as="geometry" />
        </mxCell>
        <mxCell id="d8Z05ewhvWo1tUGJ9WbJ-48" value="" style="endArrow=none;html=1;rounded=0;strokeWidth=2;fontSize=11;" parent="1" edge="1">
          <mxGeometry width="50" height="50" relative="1" as="geometry">
            <mxPoint x="600" y="268" as="sourcePoint" />
            <mxPoint x="680" y="268" as="targetPoint" />
          </mxGeometry>
        </mxCell>
        <mxCell id="d8Z05ewhvWo1tUGJ9WbJ-49" value="" style="verticalLabelPosition=bottom;shadow=0;dashed=0;align=center;html=1;verticalAlign=top;shape=mxgraph.electrical.logic_gates.logic_gate;operation=and;strokeWidth=2;" parent="1" vertex="1">
          <mxGeometry x="1120" y="107" width="100" height="60" as="geometry" />
        </mxCell>
        <mxCell id="d8Z05ewhvWo1tUGJ9WbJ-50" value="" style="rounded=0;whiteSpace=wrap;html=1;fontSize=20;strokeWidth=2;" parent="1" vertex="1">
          <mxGeometry x="1440" y="80" width="240" height="280" as="geometry" />
        </mxCell>
        <mxCell id="d8Z05ewhvWo1tUGJ9WbJ-51" value="d" style="text;html=1;align=center;verticalAlign=middle;resizable=0;points=[];autosize=1;strokeColor=none;fillColor=none;fontSize=20;" parent="1" vertex="1">
          <mxGeometry x="1449" y="87" width="30" height="40" as="geometry" />
        </mxCell>
        <mxCell id="d8Z05ewhvWo1tUGJ9WbJ-52" value="clk" style="text;html=1;align=center;verticalAlign=middle;resizable=0;points=[];autosize=1;strokeColor=none;fillColor=none;fontSize=20;" parent="1" vertex="1">
          <mxGeometry x="1449" y="315" width="50" height="40" as="geometry" />
        </mxCell>
        <mxCell id="d8Z05ewhvWo1tUGJ9WbJ-53" value="q (or) so" style="text;html=1;align=center;verticalAlign=middle;resizable=0;points=[];autosize=1;strokeColor=none;fillColor=none;fontSize=20;" parent="1" vertex="1">
          <mxGeometry x="1580" y="123" width="100" height="40" as="geometry" />
        </mxCell>
        <mxCell id="d8Z05ewhvWo1tUGJ9WbJ-54" value="&amp;gt;" style="text;html=1;align=center;verticalAlign=middle;resizable=0;points=[];autosize=1;strokeColor=none;fillColor=none;fontSize=40;strokeWidth=8;" parent="1" vertex="1">
          <mxGeometry x="1424" y="308" width="50" height="60" as="geometry" />
        </mxCell>
        <mxCell id="d8Z05ewhvWo1tUGJ9WbJ-55" value="" style="endArrow=none;html=1;rounded=0;strokeWidth=2;fontSize=11;" parent="1" edge="1">
          <mxGeometry width="50" height="50" relative="1" as="geometry">
            <mxPoint x="1360" y="338" as="sourcePoint" />
            <mxPoint x="1440" y="338" as="targetPoint" />
          </mxGeometry>
        </mxCell>
        <mxCell id="d8Z05ewhvWo1tUGJ9WbJ-56" value="" style="endArrow=none;html=1;rounded=0;strokeWidth=2;fontSize=11;" parent="1" edge="1">
          <mxGeometry width="50" height="50" relative="1" as="geometry">
            <mxPoint x="1360" y="108" as="sourcePoint" />
            <mxPoint x="1440" y="108" as="targetPoint" />
          </mxGeometry>
        </mxCell>
        <mxCell id="d8Z05ewhvWo1tUGJ9WbJ-57" value="" style="endArrow=none;html=1;rounded=0;strokeWidth=2;fontSize=11;" parent="1" edge="1">
          <mxGeometry width="50" height="50" relative="1" as="geometry">
            <mxPoint x="1680" y="147.58000000000004" as="sourcePoint" />
            <mxPoint x="1760" y="147.58000000000004" as="targetPoint" />
          </mxGeometry>
        </mxCell>
        <mxCell id="d8Z05ewhvWo1tUGJ9WbJ-58" value="si" style="text;html=1;align=center;verticalAlign=middle;resizable=0;points=[];autosize=1;strokeColor=none;fillColor=none;fontSize=20;" parent="1" vertex="1">
          <mxGeometry x="1444" y="167" width="40" height="40" as="geometry" />
        </mxCell>
        <mxCell id="d8Z05ewhvWo1tUGJ9WbJ-59" value="" style="endArrow=none;html=1;rounded=0;strokeWidth=2;fontSize=11;" parent="1" edge="1">
          <mxGeometry width="50" height="50" relative="1" as="geometry">
            <mxPoint x="1360" y="188" as="sourcePoint" />
            <mxPoint x="1440" y="188" as="targetPoint" />
          </mxGeometry>
        </mxCell>
        <mxCell id="d8Z05ewhvWo1tUGJ9WbJ-60" value="se" style="text;html=1;align=center;verticalAlign=middle;resizable=0;points=[];autosize=1;strokeColor=none;fillColor=none;fontSize=20;" parent="1" vertex="1">
          <mxGeometry x="1444" y="247" width="40" height="40" as="geometry" />
        </mxCell>
        <mxCell id="d8Z05ewhvWo1tUGJ9WbJ-61" value="" style="endArrow=none;html=1;rounded=0;strokeWidth=2;fontSize=11;" parent="1" edge="1">
          <mxGeometry width="50" height="50" relative="1" as="geometry">
            <mxPoint x="1360" y="268" as="sourcePoint" />
            <mxPoint x="1440" y="268" as="targetPoint" />
          </mxGeometry>
        </mxCell>
      </root>
    </mxGraphModel>
  </diagram>
</mxfile>
